<?xml version="1.0" encoding="iso-8859-1"?>
<!-- Uploaded to: SVG Repo, www.svgrepo.com, Generator: SVG Repo Mixer Tools -->
<svg fill="#000000" height="800px" width="800px" version="1.1" id="Layer_1" xmlns="http://www.w3.org/2000/svg" xmlns:xlink="http://www.w3.org/1999/xlink" 
	 viewBox="0 0 511.64 511.64" xml:space="preserve">
<g transform="translate(0 -1)">
	<g>
		<g>
			<path d="M504.973,377.258c-19.435-36.736-81.472-73.813-88.704-78.059c-14.421-8.213-29.717-10.731-42.987-7.019
				c-10.432,2.88-18.965,9.301-24.789,18.624c-8.128,9.685-18.176,21.077-20.288,22.933c-16.384,11.115-27.179,9.941-41.323-4.203
				L183.096,225.728c-14.336-14.336-15.403-24.747-4.757-40.512c2.432-2.88,13.824-12.949,23.488-21.077
				c9.323-5.824,15.723-14.357,18.624-24.768c3.691-13.333,1.216-28.608-7.147-43.221c-4.096-6.997-41.216-69.056-77.909-88.491
				C113.187-4.075,86.307-0.043,68.557,17.728L45.645,40.64C4.195,82.069-46.237,170.645,81.421,298.304L214.328,431.21
				c61.141,61.141,113.301,81.429,155.627,81.429c46.059,0,80.448-24.043,102.037-45.632l22.912-22.933
				C512.675,426.325,516.728,399.466,504.973,377.258z"/>
			<path d="M362.245,257.06c47.851,0,85.333-28.117,85.333-64V71.844c11.285,17.152,21.333,42.539,21.333,78.549
				c0,11.776,9.536,21.333,21.333,21.333s21.333-9.557,21.333-21.333c0-107.947-72.704-145.536-75.797-147.093
				c-6.613-3.285-14.464-2.944-20.736,0.939c-6.293,3.904-10.133,10.752-10.133,18.155V137.7c-12.523-5.355-26.923-8.64-42.667-8.64
				c-47.851,0-85.333,28.117-85.333,64S314.394,257.06,362.245,257.06z"/>
		</g>
	</g>
</g>
</svg>